<?xml version="1.0" standalone="no"?>
<!DOCTYPE svg PUBLIC "-//W3C//DTD SVG 20010904//EN"
 "http://www.w3.org/TR/2001/REC-SVG-20010904/DTD/svg10.dtd">
<svg version="1.0" xmlns="http://www.w3.org/2000/svg"
 width="512.000000pt" height="512.000000pt" viewBox="0 0 512.000000 512.000000"
 preserveAspectRatio="xMidYMid meet">
<metadata>
Created by potrace 1.14, written by Peter Selinger 2001-2017
</metadata>
<g transform="translate(0.000000,512.000000) scale(0.100000,-0.100000)"
fill="#000000" stroke="none">
<path d="M1777 4735 c-5 -17 -42 -167 -52 -215 -5 -20 -87 -364 -137 -575 -22
-93 -43 -180 -45 -193 -3 -12 -10 -25 -16 -29 -5 -3 -67 -19 -136 -35 -69 -16
-133 -30 -141 -32 -8 -2 -170 -41 -360 -85 -363 -86 -376 -89 -368 -96 2 -2
35 -11 74 -20 38 -8 107 -24 154 -35 47 -11 96 -23 109 -26 13 -3 51 -12 85
-20 34 -8 70 -17 81 -19 88 -19 456 -108 481 -116 35 -11 20 40 140 -469 24
-102 60 -252 79 -335 20 -82 39 -161 41 -174 10 -50 21 -55 28 -15 4 22 30
131 57 244 26 113 76 322 110 465 33 143 66 265 73 271 11 12 83 31 296 79 63
15 122 28 130 31 8 2 74 17 145 34 72 17 168 40 215 51 106 26 93 23 169 39
40 8 58 16 49 21 -7 4 -104 29 -213 55 -110 25 -312 73 -450 105 -137 33 -271
64 -297 70 -53 12 -59 21 -84 149 -3 14 -10 43 -16 65 -5 22 -12 47 -13 55
-11 50 -34 150 -111 475 -25 105 -51 215 -58 245 -9 40 -15 49 -19 35z"/>
<path d="M3832 3520 c-10 -33 -28 -107 -104 -435 -16 -71 -35 -135 -41 -141
-10 -9 -113 -37 -216 -59 -9 -2 -95 -22 -191 -46 -96 -23 -181 -42 -188 -42
-21 -1 2 -17 32 -23 14 -2 102 -22 194 -44 92 -22 208 -50 257 -62 50 -11 97
-24 105 -29 13 -6 35 -78 56 -184 16 -80 98 -412 103 -418 6 -6 77 272 96 372
2 13 9 38 14 55 6 17 12 42 15 56 19 110 28 124 81 133 48 9 415 96 471 112
28 8 59 15 69 15 41 0 -4 20 -90 39 -49 12 -126 29 -170 40 -44 10 -134 31
-200 46 -66 16 -125 34 -131 42 -6 7 -17 41 -24 76 -7 34 -14 67 -16 72 -1 6
-18 76 -38 157 -19 81 -38 160 -41 175 -3 15 -11 51 -18 78 l-14 50 -11 -35z"/>
<path d="M2441 2132 c-29 -125 -54 -231 -55 -237 -23 -110 -70 -296 -79 -315
-10 -19 -27 -28 -87 -42 -41 -10 -190 -45 -330 -79 -140 -33 -262 -62 -270
-63 -62 -10 -101 -20 -105 -26 -3 -4 26 -15 63 -24 87 -21 361 -86 387 -91 11
-3 91 -22 177 -42 l158 -38 14 -45 c8 -25 26 -97 41 -160 14 -63 38 -162 52
-220 33 -139 32 -137 38 -162 24 -115 50 -207 56 -201 4 4 42 156 84 338 42
181 78 332 80 335 2 3 6 22 9 43 3 21 10 46 16 56 8 15 63 34 144 48 11 2 47
11 80 19 34 9 68 17 76 19 8 2 85 20 170 40 85 20 162 38 170 40 180 40 182
42 80 65 -30 7 -129 30 -220 52 -91 22 -223 53 -295 69 -198 45 -202 47 -209
72 -3 12 -45 186 -92 387 -47 201 -89 370 -93 377 -3 7 -30 -90 -60 -215z"/>
</g>
</svg>
