<?xml version="1.0" standalone="no"?>
<!DOCTYPE svg PUBLIC "-//W3C//DTD SVG 20010904//EN"
 "http://www.w3.org/TR/2001/REC-SVG-20010904/DTD/svg10.dtd">
<svg version="1.0" xmlns="http://www.w3.org/2000/svg"
 width="1200.000000pt" height="1200.000000pt" viewBox="0 0 1200.000000 1200.000000"
 preserveAspectRatio="xMidYMid meet">
<metadata>
Created by potrace 1.14, written by Peter Selinger 2001-2017
</metadata>
<g transform="translate(0.000000,1200.000000) scale(0.100000,-0.100000)"
fill="#000000" stroke="none">
<path d="M3965 8195 c-91 -17 -159 -43 -229 -90 -78 -51 -129 -114 -181 -220
-73 -152 -77 -181 -73 -656 l3 -414 28 -80 c40 -112 81 -180 153 -253 107
-107 255 -162 439 -162 317 0 529 164 606 469 19 76 20 104 16 503 -3 393 -5
427 -24 484 -47 141 -121 250 -214 319 -132 97 -333 135 -524 100z"/>
<path d="M7755 8196 c-233 -46 -376 -177 -458 -421 -19 -56 -21 -90 -24 -483
-4 -400 -3 -427 16 -505 76 -301 290 -467 606 -467 184 0 332 55 439 162 72
73 113 141 153 253 l28 80 3 418 c3 394 2 423 -17 500 -60 240 -205 397 -416
452 -85 22 -245 27 -330 11z"/>
<path d="M2943 5370 c-261 -47 -395 -239 -410 -586 -21 -482 190 -1031 588
-1534 112 -141 385 -413 540 -537 578 -461 1278 -738 2024 -802 154 -14 476
-14 630 0 900 77 1733 466 2346 1096 534 550 831 1207 806 1783 -16 365 -169
558 -463 585 -75 7 -61 9 -617 -94 -891 -165 -1574 -231 -2387 -231 -859 0
-1539 70 -2570 265 -315 59 -405 69 -487 55z m522 -709 c407 -92 934 -163
1480 -201 83 -5 184 -12 225 -15 41 -3 245 -10 452 -15 1156 -27 2290 71 3048
263 94 24 170 40 170 37 0 -13 -77 -125 -140 -205 -356 -449 -972 -798 -1675
-950 -353 -76 -605 -100 -1035 -99 -508 1 -849 44 -1256 160 -595 169 -1119
494 -1434 889 -65 82 -140 192 -140 206 0 4 39 -4 88 -17 48 -13 146 -37 217
-53z"/>
</g>
</svg>
