<?xml version="1.0" standalone="no"?>
<!DOCTYPE svg PUBLIC "-//W3C//DTD SVG 20010904//EN"
 "http://www.w3.org/TR/2001/REC-SVG-20010904/DTD/svg10.dtd">
<svg version="1.0" xmlns="http://www.w3.org/2000/svg"
 width="200.000000pt" height="200.000000pt" viewBox="0 0 200.000000 200.000000"
 preserveAspectRatio="xMidYMid meet">
<metadata>
Created by potrace 1.14, written by Peter Selinger 2001-2017
</metadata>
<g transform="translate(0.000000,200.000000) scale(0.100000,-0.100000)"
fill="#000000" stroke="none">
<path d="M922 1699 c-26 -17 -51 -58 -117 -190 -46 -92 -90 -171 -96 -175 -7
-4 -22 -8 -33 -9 -71 -9 -288 -42 -328 -50 -36 -8 -85 -66 -94 -111 -13 -69 6
-101 144 -234 70 -69 131 -130 135 -137 6 -9 -17 -165 -38 -263 -3 -14 -8 -50
-11 -80 -9 -91 39 -156 125 -167 43 -6 51 -4 151 48 30 16 97 50 148 77 l92
47 174 -89 c156 -80 177 -88 214 -84 88 12 138 79 128 174 -4 30 -11 76 -16
102 -23 113 -34 183 -33 214 0 22 26 53 122 145 151 146 166 167 158 235 -9
75 -57 119 -142 131 -84 12 -320 49 -321 50 -1 1 -40 79 -88 174 -57 115 -94
178 -112 189 -42 28 -123 29 -162 3z"/>
</g>
</svg>
