<?xml version="1.0" standalone="no"?>
<!DOCTYPE svg PUBLIC "-//W3C//DTD SVG 20010904//EN"
 "http://www.w3.org/TR/2001/REC-SVG-20010904/DTD/svg10.dtd">
<svg version="1.0" xmlns="http://www.w3.org/2000/svg"
 width="984.000000pt" height="984.000000pt" viewBox="0 0 984.000000 984.000000"
 preserveAspectRatio="xMidYMid meet">
<metadata>
Created by potrace 1.14, written by Peter Selinger 2001-2017
</metadata>
<g transform="translate(0.000000,984.000000) scale(0.100000,-0.100000)"
fill="#000000" stroke="none">
<path d="M5161 9019 c-88 -17 -115 -59 -65 -98 23 -18 41 -21 119 -21 l93 0
50 -47 c84 -79 77 -116 -33 -164 -58 -26 -223 -155 -266 -209 -32 -40 -119
-90 -156 -90 -12 0 -41 10 -63 21 -98 52 -328 -15 -355 -102 -16 -50 71 -65
172 -29 60 21 153 27 153 10 0 -5 -4 -10 -10 -10 -5 0 -30 -20 -54 -44 -33
-32 -55 -45 -86 -50 -23 -3 -69 -21 -103 -38 -66 -33 -92 -36 -238 -28 -70 5
-79 3 -115 -22 -50 -35 -92 -36 -162 -3 -65 30 -76 31 -99 6 -25 -26 -88 -42
-120 -30 -36 13 -67 11 -126 -9 -38 -13 -63 -16 -92 -10 -22 4 -60 5 -85 2
-25 -2 -76 -6 -115 -8 -52 -3 -84 -11 -123 -32 -31 -16 -67 -27 -87 -26 -48 2
-72 -9 -130 -58 -49 -41 -143 -90 -172 -90 -28 0 -84 -33 -116 -68 -84 -92
-115 -118 -155 -127 -32 -6 -106 -73 -124 -110 -35 -75 -54 -100 -130 -174
-76 -74 -108 -119 -108 -152 0 -31 -28 -84 -75 -144 -44 -55 -54 -76 -65 -137
-6 -29 -20 -66 -32 -83 -18 -24 -22 -44 -23 -110 -1 -59 -6 -87 -19 -107 -16
-24 -17 -47 -14 -225 l4 -198 39 -70 c63 -114 75 -139 75 -151 0 -7 24 -37 53
-66 29 -29 69 -78 89 -108 20 -30 50 -66 67 -80 17 -14 31 -31 31 -38 0 -24
48 -62 79 -62 20 0 48 -13 77 -35 25 -19 50 -35 55 -35 17 0 132 -58 179 -89
25 -17 57 -31 71 -31 14 0 57 -16 97 -35 49 -24 95 -38 147 -45 41 -5 89 -17
106 -25 26 -14 30 -20 24 -43 -3 -14 -22 -41 -41 -59 -44 -41 -84 -126 -84
-178 0 -22 -7 -52 -14 -68 -19 -36 -48 -141 -54 -195 -3 -31 1 -48 13 -62 14
-15 17 -45 19 -177 2 -125 6 -164 19 -188 9 -16 17 -40 17 -52 0 -12 18 -43
40 -68 22 -25 40 -53 40 -61 0 -8 9 -31 20 -51 11 -21 20 -50 20 -66 0 -40 41
-105 95 -150 25 -21 53 -54 63 -73 118 -236 136 -266 178 -296 51 -36 101 -96
109 -130 6 -22 0 -29 -42 -53 -61 -36 -105 -84 -143 -157 -37 -71 -41 -147
-10 -210 15 -31 20 -62 20 -124 0 -75 2 -85 27 -114 15 -18 53 -43 85 -57 32
-14 58 -29 58 -34 0 -4 9 -11 21 -14 11 -4 25 -17 31 -30 9 -21 6 -29 -26 -66
-48 -57 -76 -117 -76 -165 0 -25 -11 -61 -29 -95 -50 -94 -78 -152 -103 -211
-20 -51 -26 -58 -52 -58 -28 0 -29 0 -21 42 18 94 4 322 -23 373 -33 62 -62
140 -68 184 -3 26 -12 56 -20 68 -8 12 -14 30 -14 40 0 32 -70 161 -114 210
-23 27 -56 73 -74 103 -28 51 -73 90 -102 90 -6 0 -30 15 -53 34 -61 50 -147
86 -204 86 -26 0 -60 6 -75 14 -55 29 -135 47 -163 36 -44 -17 -60 -12 -104
30 -23 22 -49 40 -58 40 -9 0 -33 -18 -53 -40 -31 -34 -43 -40 -77 -40 -23 0
-46 -6 -52 -14 -7 -8 -24 -17 -39 -21 -15 -4 -34 -13 -42 -20 -8 -7 -35 -19
-60 -25 -88 -24 -118 -46 -151 -113 -35 -69 -67 -104 -137 -144 -73 -43 -102
-86 -123 -185 -8 -36 -23 -60 -69 -108 -32 -33 -61 -73 -65 -88 -4 -15 -14
-35 -23 -45 -14 -16 -16 -38 -14 -134 3 -96 0 -120 -15 -151 -34 -66 -56 -168
-51 -236 5 -63 -1 -124 -21 -184 -9 -30 -7 -37 15 -59 41 -41 57 -98 63 -234
5 -97 10 -131 22 -145 9 -11 20 -30 23 -44 15 -53 60 -131 85 -146 14 -9 41
-39 60 -67 53 -79 71 -96 115 -108 23 -6 50 -18 61 -28 44 -37 103 -61 152
-61 28 0 58 -7 71 -16 38 -26 125 -51 152 -43 42 12 104 9 124 -6 28 -21 99
-19 143 5 28 15 57 20 108 20 78 0 162 32 226 87 19 16 50 40 69 53 19 13 49
37 65 53 17 16 43 34 58 39 16 6 39 28 53 49 21 33 29 39 60 39 20 0 49 -9 65
-21 24 -17 39 -20 77 -15 26 3 83 9 128 14 44 5 86 12 93 16 28 18 59 -4 84
-58 24 -51 70 -97 112 -110 11 -3 33 -26 50 -51 16 -24 43 -50 60 -57 16 -6
46 -25 66 -40 37 -29 115 -63 184 -80 22 -5 69 -18 105 -29 58 -17 70 -18 109
-6 31 10 58 11 89 5 29 -5 59 -4 83 4 35 10 41 9 73 -16 45 -34 73 -33 112 5
26 25 44 32 94 38 54 7 66 12 97 44 33 36 44 41 70 38 23 -3 97 47 148 99 65
68 158 127 209 135 37 5 65 15 173 61 18 7 63 18 100 24 37 6 106 20 152 31
72 17 91 18 135 8 80 -18 105 -30 111 -50 10 -32 75 -67 135 -75 30 -4 63 -11
72 -16 10 -4 52 -13 95 -18 86 -11 123 -31 208 -110 77 -72 132 -96 187 -79
18 6 58 16 88 24 30 7 73 20 95 29 22 8 58 15 79 16 37 0 126 41 126 58 0 4
17 20 37 36 33 27 43 30 104 28 59 -2 70 0 98 24 49 41 88 128 96 212 9 84 -3
111 -57 131 -18 7 -44 19 -58 26 -14 7 -38 15 -55 19 -29 6 -60 20 -135 57
-19 9 -51 20 -70 24 -19 4 -41 11 -50 15 -8 5 -60 29 -115 55 -55 26 -113 54
-130 62 -16 9 -60 18 -97 21 -55 4 -73 1 -100 -15 -19 -11 -53 -23 -76 -27
-24 -3 -51 -10 -60 -15 -59 -32 -114 -52 -134 -49 -23 3 -23 5 -20 108 2 61 9
111 15 119 8 10 13 84 15 234 l2 221 -30 58 c-24 45 -29 66 -25 92 4 20 1 51
-8 77 -10 30 -13 65 -10 111 5 54 2 74 -16 110 -17 35 -22 67 -24 158 -3 101
-7 121 -30 167 -15 28 -31 53 -36 55 -5 1 -14 53 -19 114 -9 110 -18 136 -68
191 -6 6 -14 39 -18 72 -9 75 -3 87 99 206 42 50 90 106 107 127 17 20 37 49
45 65 7 15 25 43 38 62 14 19 28 46 31 60 6 28 5 27 48 92 37 55 56 118 56
183 0 28 8 81 17 118 19 74 17 96 -28 283 -12 50 -22 103 -23 118 -1 30 10 36
114 70 19 6 41 15 49 21 7 6 48 18 90 27 42 9 101 23 131 31 30 9 85 18 123
22 67 7 68 6 102 -27 19 -19 52 -41 72 -49 21 -9 66 -28 99 -42 34 -14 68 -26
75 -26 8 0 22 -7 33 -15 13 -10 50 -14 130 -14 94 -1 115 2 141 19 17 11 41
20 55 20 14 0 39 9 55 20 17 11 41 20 55 20 14 0 39 9 55 20 35 24 110 60 124
60 6 0 15 9 21 20 6 11 19 20 30 20 11 0 44 21 73 48 30 26 70 59 90 74 19 15
57 62 83 105 58 93 112 161 135 168 24 8 66 74 73 118 4 20 10 37 15 37 12 0
61 80 61 101 0 11 7 36 15 56 8 20 14 59 13 87 -2 67 17 193 32 212 8 9 11 30
7 59 -4 29 -1 56 9 81 24 57 21 184 -6 238 -11 25 -24 62 -27 83 -3 21 -13 52
-23 68 -10 17 -21 48 -24 70 -9 50 -36 125 -52 145 -7 8 -15 27 -19 42 -4 15
-13 32 -20 38 -8 6 -17 26 -20 43 -11 53 -47 161 -60 177 -25 31 -55 108 -55
139 0 47 -20 78 -94 148 -48 45 -66 69 -66 88 0 42 -58 146 -115 205 -53 55
-95 121 -95 150 0 9 -15 38 -34 66 -18 28 -38 66 -44 83 -6 17 -35 69 -65 114
-29 45 -61 95 -71 110 -9 15 -27 33 -39 38 -24 11 -85 88 -103 129 -6 14 -22
31 -36 38 -13 8 -33 27 -42 44 -27 45 -104 118 -125 118 -10 0 -25 9 -32 19
-8 10 -63 45 -124 76 -60 31 -117 63 -125 70 -31 27 -90 45 -152 45 -63 0 -70
3 -143 54 -20 15 -51 21 -128 25 -87 5 -109 10 -149 34 -39 23 -54 26 -88 21
-22 -4 -43 -11 -46 -15 -3 -5 -39 -9 -79 -9 -41 0 -94 -7 -118 -15 -23 -8 -94
-16 -157 -18 -106 -4 -120 -7 -174 -36 -32 -17 -66 -31 -76 -31 -20 0 -80 55
-80 72 0 20 -50 78 -81 94 -17 8 -51 31 -76 50 -48 37 -87 42 -182 23z m1141
-297 c2 -5 28 -20 58 -35 46 -21 68 -25 120 -22 68 3 140 -10 140 -24 0 -12
21 -19 97 -31 36 -6 75 -17 87 -25 11 -8 32 -15 47 -15 16 0 39 -13 62 -35 19
-19 47 -37 61 -41 14 -3 26 -9 26 -13 0 -4 24 -18 53 -31 28 -12 63 -28 77
-34 14 -6 29 -17 33 -23 4 -7 15 -13 22 -13 8 0 15 -9 15 -20 0 -11 7 -20 15
-20 8 0 19 -9 25 -20 6 -11 17 -20 25 -20 9 0 15 -10 15 -24 0 -12 11 -35 25
-50 14 -15 25 -31 25 -37 0 -5 4 -9 9 -9 15 0 101 -86 101 -101 0 -8 9 -22 20
-32 11 -9 20 -23 20 -32 0 -8 9 -19 20 -25 11 -6 20 -20 20 -31 0 -11 7 -22
15 -25 12 -5 15 -24 15 -84 0 -76 14 -140 31 -140 4 0 13 -19 19 -42 16 -63
37 -96 103 -160 49 -48 59 -63 62 -97 1 -21 10 -49 19 -62 9 -13 16 -31 16
-40 0 -8 12 -27 28 -41 67 -63 92 -96 92 -122 0 -15 7 -29 15 -32 9 -4 17 -27
21 -66 4 -36 12 -62 20 -65 8 -3 14 -11 14 -19 0 -8 9 -23 21 -35 17 -17 22
-38 26 -100 3 -43 10 -79 14 -79 5 0 15 -16 23 -35 8 -19 19 -35 24 -35 5 0
12 -37 16 -82 4 -53 12 -87 21 -94 7 -5 17 -22 20 -37 4 -15 15 -31 23 -36 15
-8 17 -43 15 -322 -1 -269 -3 -313 -16 -321 -10 -5 -18 -31 -22 -72 -4 -37
-13 -67 -20 -70 -7 -2 -16 -21 -19 -41 -4 -20 -16 -45 -27 -56 -10 -10 -19
-26 -19 -34 0 -8 -7 -15 -16 -15 -9 0 -18 -9 -21 -19 -3 -11 -15 -22 -28 -25
-21 -5 -54 -34 -112 -97 -43 -46 -63 -59 -90 -59 -27 0 -27 0 -6 15 11 8 24
26 27 41 4 14 12 32 19 40 34 42 64 71 80 77 9 3 17 13 17 22 0 8 4 15 10 15
5 0 17 15 26 33 9 17 23 36 30 40 8 4 14 13 14 19 0 6 7 20 17 30 12 14 18 46
22 131 5 82 11 119 24 137 10 14 17 43 17 70 0 26 8 61 20 83 11 20 20 46 20
57 0 11 9 28 20 37 28 24 25 72 -5 113 -14 19 -25 39 -25 46 0 7 -5 14 -12 16
-8 3 -13 41 -15 118 -4 119 -2 114 -60 174 -13 13 -26 38 -29 57 -9 50 -65 99
-112 99 -20 0 -50 9 -67 20 -66 43 -113 22 -179 -80 -15 -25 -35 -49 -42 -53
-8 -4 -14 -14 -14 -21 0 -7 -11 -26 -25 -42 -14 -16 -25 -32 -25 -36 0 -9 -14
-26 -71 -85 -19 -21 -38 -46 -42 -55 -3 -10 -13 -18 -21 -18 -7 0 -16 -6 -19
-13 -3 -8 -16 -13 -29 -12 -29 2 -38 42 -11 52 22 8 63 45 63 56 0 13 57 67
69 67 6 0 11 7 11 15 0 9 6 18 14 21 8 3 18 19 21 35 4 16 15 34 26 39 10 6
19 17 19 26 0 8 7 17 15 20 8 4 15 10 15 15 0 5 20 30 44 56 72 75 76 82 76
111 0 34 -33 67 -75 75 -35 6 -91 -23 -100 -53 -4 -11 -12 -20 -20 -20 -8 0
-16 -9 -20 -19 -3 -11 -12 -22 -19 -24 -8 -3 -17 -19 -21 -35 -3 -17 -13 -33
-21 -36 -8 -3 -14 -12 -14 -20 0 -9 -9 -20 -20 -26 -14 -8 -20 -21 -20 -45 0
-28 -4 -35 -20 -35 -11 0 -20 -7 -20 -15 0 -8 -9 -19 -20 -25 -11 -6 -20 -16
-20 -22 0 -6 -25 -35 -55 -65 -30 -29 -59 -62 -65 -73 -6 -12 -16 -18 -21 -14
-15 9 -1 55 22 77 10 10 19 24 19 31 0 7 9 24 20 38 25 32 39 150 20 173 -33
39 -95 5 -103 -56 -3 -23 -13 -46 -21 -51 -9 -5 -16 -16 -16 -23 0 -8 -5 -15
-12 -15 -15 0 -68 -50 -68 -65 0 -6 -9 -18 -20 -28 -11 -9 -20 -26 -20 -37 0
-10 -15 -34 -32 -52 -37 -37 -88 -109 -88 -124 0 -5 -7 -22 -16 -39 -8 -16
-18 -52 -21 -80 -3 -27 -14 -62 -24 -77 -10 -15 -19 -41 -19 -59 0 -21 -6 -32
-17 -35 -14 -4 -24 -31 -42 -107 -13 -56 -32 -114 -42 -129 -11 -15 -19 -41
-19 -57 0 -16 -7 -37 -16 -46 -13 -13 -14 -18 -3 -31 10 -12 9 -24 -5 -64 -15
-42 -17 -71 -12 -186 4 -103 8 -139 20 -148 8 -6 16 -24 18 -41 3 -29 1 -30
-41 -33 -25 -2 -50 -9 -55 -17 -7 -8 -39 -15 -89 -17 -62 -3 -81 -7 -88 -21
-6 -9 -16 -17 -24 -17 -8 0 -19 -8 -24 -19 -7 -13 -27 -21 -63 -25 -29 -4 -55
-12 -59 -17 -3 -6 -25 -13 -48 -16 -36 -5 -41 -3 -41 15 0 18 -16 42 -61 91
-8 10 -18 25 -22 34 -3 9 -13 17 -22 17 -8 0 -15 7 -15 15 0 8 -4 15 -9 15
-11 0 -71 58 -71 69 0 5 -9 13 -20 16 -11 3 -20 13 -20 21 0 8 -9 14 -20 14
-11 0 -20 5 -20 10 0 6 6 10 14 10 7 0 25 9 39 20 14 11 32 20 40 20 8 0 26
11 41 25 15 14 33 25 41 25 7 0 15 6 17 12 3 8 30 13 77 15 61 1 76 6 102 27
17 14 37 26 45 26 8 0 14 4 14 10 0 5 15 16 33 24 17 7 49 30 69 50 20 20 41
36 46 36 24 0 29 102 7 140 -8 14 -17 32 -21 40 -4 8 -20 27 -37 43 -41 37
-81 36 -119 -5 -25 -27 -30 -40 -29 -82 0 -34 5 -54 15 -62 20 -14 20 -24 1
-24 -8 0 -15 -7 -15 -15 0 -8 -16 -19 -40 -25 -21 -6 -42 -15 -45 -20 -3 -6
-35 -10 -71 -10 -47 0 -69 -4 -82 -17 -10 -10 -29 -24 -44 -32 -14 -7 -40 -26
-58 -42 -17 -16 -33 -29 -36 -29 -2 0 -26 -10 -52 -22 -61 -29 -174 -32 -212
-5 -30 21 -87 22 -139 1 -36 -14 -42 -14 -70 0 -39 21 -164 22 -180 2 -6 -8
-33 -17 -59 -21 -26 -4 -54 -13 -62 -20 -8 -8 -34 -18 -57 -23 -39 -9 -51 -16
-93 -53 -10 -10 -32 -20 -50 -24 -18 -4 -49 -25 -70 -46 -21 -21 -43 -39 -49
-39 -6 0 -11 -7 -11 -15 0 -8 -4 -15 -10 -15 -5 0 -10 7 -10 15 0 9 -7 18 -15
21 -8 3 -17 14 -20 25 -4 10 -13 19 -21 19 -9 0 -14 10 -14 27 0 35 -38 113
-59 121 -21 8 -71 58 -71 71 0 5 -9 13 -20 16 -11 3 -20 13 -20 21 0 8 -5 14
-12 14 -6 0 -27 17 -47 39 -20 21 -47 42 -59 46 -13 4 -33 16 -43 26 -10 10
-32 19 -49 19 -20 0 -30 5 -30 15 0 10 -10 15 -34 15 -18 0 -45 9 -58 20 -23
17 -44 20 -202 22 -154 3 -179 1 -189 -13 -7 -9 -31 -20 -55 -24 -25 -4 -42
-12 -42 -20 0 -8 -15 -17 -35 -21 -20 -3 -35 -12 -35 -20 0 -10 -12 -14 -39
-14 -29 0 -48 -7 -67 -25 -15 -14 -33 -25 -41 -25 -7 0 -16 -7 -19 -15 -4 -8
-11 -15 -16 -15 -6 0 -24 -12 -41 -26 -29 -25 -36 -26 -102 -21 -38 4 -88 13
-110 21 -22 8 -54 15 -71 16 -17 0 -43 9 -57 20 -15 12 -49 24 -78 27 -28 3
-53 12 -56 19 -2 6 -19 15 -38 18 -18 4 -35 13 -38 20 -3 7 -21 16 -40 20 -19
4 -38 13 -41 21 -3 8 -23 18 -46 21 -24 4 -40 12 -40 20 0 8 -9 14 -20 14 -10
0 -27 8 -37 19 -10 10 -35 21 -55 25 -23 4 -38 13 -38 21 0 7 -9 16 -19 20
-11 3 -24 19 -30 36 -7 20 -21 35 -41 42 -16 6 -33 19 -36 29 -3 10 -11 18
-19 18 -7 0 -16 14 -20 31 -4 19 -15 33 -26 36 -10 3 -19 11 -19 19 0 7 -6 17
-14 21 -7 4 -19 25 -25 46 -7 20 -17 37 -22 37 -5 0 -9 14 -9 31 0 22 -5 32
-20 36 -23 6 -22 3 -20 98 1 40 6 73 13 78 9 6 9 10 0 14 -8 3 -13 24 -13 54
0 31 4 48 10 44 6 -3 10 3 10 14 0 10 -6 22 -12 24 -10 4 -10 7 0 14 18 13 32
69 32 127 0 32 6 56 16 67 11 12 18 44 22 91 3 47 10 76 18 81 8 4 14 16 14
26 0 10 9 30 20 44 11 14 20 32 20 40 0 8 8 25 18 38 20 29 36 54 58 94 9 16
23 35 30 43 8 7 14 17 14 22 0 5 9 12 20 15 11 3 20 13 20 20 0 8 9 19 20 25
11 6 20 17 20 25 0 8 11 26 25 41 14 15 25 31 25 35 0 5 7 9 15 9 8 0 15 8 15
18 0 14 11 21 47 28 38 7 52 16 68 41 11 17 30 34 42 37 12 3 41 24 65 47 24
22 50 47 59 55 9 8 25 14 37 14 12 0 26 9 32 20 6 11 21 20 34 20 13 0 35 9
49 20 14 11 29 20 35 20 5 0 20 8 33 19 13 10 39 22 58 26 19 4 41 13 48 20 7
7 41 16 75 20 35 4 68 11 73 15 18 13 57 18 185 26 69 3 133 10 142 15 9 5 69
12 133 15 77 5 121 12 130 21 18 17 53 17 71 -2 24 -24 151 -20 189 5 25 17
47 20 135 20 82 0 111 4 129 17 13 9 44 20 68 24 24 5 51 15 59 24 9 8 30 15
49 15 43 0 65 9 65 26 0 8 7 14 16 14 9 0 27 9 41 20 14 11 34 20 44 20 12 0
19 7 19 19 0 10 18 30 40 46 22 15 40 32 40 36 0 5 7 9 16 9 9 0 18 9 21 19 3
11 16 22 29 25 13 4 24 13 24 21 0 9 13 18 31 22 19 3 34 14 36 25 3 10 12 18
20 18 8 0 17 9 20 20 3 11 11 20 19 20 7 0 18 9 24 20 6 11 17 20 26 20 8 0
17 6 20 14 3 8 20 18 37 22 18 3 40 15 50 25 10 11 21 19 26 19 4 0 18 9 31
20 13 11 31 20 40 20 9 0 25 9 34 19 25 28 64 33 72 9 3 -11 3 -22 0 -25 -12
-12 15 -42 44 -48 20 -4 39 -1 59 11 26 15 29 24 33 75 2 32 7 61 10 65 4 3
26 8 50 11 24 3 50 11 58 18 9 8 57 14 122 17 59 3 113 9 120 15 8 6 21 7 33
2 36 -14 115 -10 121 6 5 11 22 15 64 15 32 0 60 -4 62 -8z m863 -2314 c-4
-18 -13 -40 -21 -49 -18 -20 -18 -29 4 -45 16 -13 16 -15 -1 -28 -9 -7 -22
-27 -28 -45 -6 -17 -15 -31 -20 -31 -5 0 -9 -6 -9 -12 0 -19 -52 -118 -62
-118 -5 0 -16 -16 -24 -35 -8 -19 -18 -35 -23 -35 -5 0 -12 -11 -15 -25 -4
-14 -11 -25 -16 -25 -17 0 -11 48 9 67 10 10 22 33 26 51 3 17 10 32 15 32 9
0 45 99 62 170 5 25 16 52 24 61 8 8 14 21 14 27 0 6 6 15 14 19 7 4 18 18 25
31 18 34 34 28 26 -10z m671 -129 c-3 -17 -7 -41 -8 -53 0 -11 -4 -1 -7 24 -7
49 -5 60 11 60 6 0 8 -12 4 -31z m-919 -376 c-3 -10 -5 -2 -5 17 0 19 2 27 5
18 2 -10 2 -26 0 -35z m3 -136 c0 -44 -5 -78 -12 -85 -7 -7 -17 -47 -23 -89
-9 -68 -13 -77 -33 -78 -18 -1 -22 4 -22 26 0 15 5 29 12 31 8 3 14 46 19 124
4 65 8 122 8 126 1 6 20 13 44 17 4 0 7 -32 7 -72z m19 -449 c7 -2 19 -19 25
-38 9 -28 18 -37 48 -44 42 -11 54 -36 33 -75 -13 -25 -14 -25 -21 -6 -11 30
-35 55 -54 55 -29 0 -89 87 -75 110 3 4 -5 10 -16 13 -12 3 -18 10 -14 17 4 7
15 4 33 -8 15 -11 33 -21 41 -24z m825 -47 c3 -5 -1 -12 -10 -15 -24 -9 -64
-7 -64 3 0 17 65 27 74 12z m-84 -41 c0 -5 -8 -10 -17 -10 -15 0 -16 2 -3 10
19 12 20 12 20 0z m-40 -40 c0 -5 -15 -10 -32 -9 -31 1 -32 1 -8 9 35 11 40
11 40 0z m-273 -86 c-3 -3 -12 -4 -19 -1 -8 3 -5 6 6 6 11 1 17 -2 13 -5z
m-2787 -1119 c0 -7 6 -15 14 -18 19 -7 27 -57 10 -57 -8 0 -14 7 -14 15 0 8
-6 15 -14 15 -14 0 -29 48 -19 63 6 11 23 -2 23 -18z m-356 -25 c16 -6 26 -17
26 -29 0 -11 9 -25 20 -31 11 -6 20 -20 20 -31 0 -13 8 -23 22 -27 20 -5 19
-7 -12 -17 -54 -18 -81 -77 -90 -200 -4 -55 -8 -80 -9 -55 -3 85 -7 90 -66 90
l-53 0 -4 48 c-3 26 0 56 6 67 5 11 9 31 7 44 -2 15 1 21 8 17 7 -5 11 7 11
34 0 33 6 48 29 71 32 31 45 34 85 19z m504 -88 c3 -10 -4 -13 -24 -10 -15 2
-29 9 -32 16 -3 10 4 13 24 10 15 -2 29 -9 32 -16z m318 -78 c24 -26 44 -51
44 -56 0 -5 9 -21 20 -35 11 -14 20 -30 20 -34 0 -5 -9 -17 -20 -26 -11 -10
-20 -26 -20 -36 0 -10 -9 -21 -19 -24 -11 -3 -22 -11 -25 -18 -2 -7 -19 -16
-36 -20 -17 -4 -34 -13 -37 -21 -2 -7 -13 -16 -23 -19 -24 -8 -33 -70 -15
-105 12 -22 23 -29 65 -34 29 -4 50 -12 50 -19 0 -16 83 -107 97 -107 6 0 13
-6 16 -14 3 -7 18 -16 32 -20 15 -4 45 -25 67 -47 31 -31 46 -39 76 -39 54 0
81 10 87 31 4 10 13 19 20 19 20 0 45 52 38 79 -4 15 1 28 16 42 15 14 19 27
15 44 -4 18 -1 25 15 30 12 3 21 13 21 21 0 9 11 14 31 14 22 0 32 5 36 20 3
11 13 20 22 20 9 0 31 14 49 31 l32 30 0 -61 c0 -69 8 -88 52 -131 l31 -29 1
-123 c1 -118 2 -123 30 -160 16 -20 32 -37 37 -37 12 0 11 -77 -1 -85 -14 -9
-12 -49 3 -64 10 -10 9 -14 -5 -22 -10 -6 -18 -22 -18 -37 0 -15 -9 -44 -20
-65 -28 -51 -27 -126 3 -175 12 -20 24 -48 26 -62 1 -14 7 -26 12 -28 5 -2 9
-21 9 -42 0 -25 6 -43 18 -52 9 -7 23 -25 31 -40 8 -16 18 -28 22 -28 15 0 49
-88 49 -127 0 -21 -7 -49 -16 -62 -14 -20 -16 -39 -10 -119 6 -93 -5 -191 -26
-219 -5 -7 -5 -14 2 -18 5 -3 10 -20 10 -36 0 -18 -4 -28 -10 -24 -6 4 -11
-11 -12 -37 -3 -66 0 -92 12 -96 16 -6 12 -42 -10 -88 -16 -33 -25 -41 -40
-37 -11 3 -20 9 -20 12 0 4 -24 4 -52 0 -29 -4 -87 -8 -128 -9 -88 -3 -136
-12 -133 -27 1 -6 -32 -13 -84 -16 -51 -4 -92 -12 -102 -20 -19 -17 -65 -29
-74 -20 -4 3 7 22 24 42 16 20 34 41 39 47 5 7 14 30 20 52 6 23 15 44 19 47
5 3 12 23 16 46 4 22 12 42 19 45 13 5 15 29 21 277 2 98 8 184 13 193 5 8 3
39 -3 72 -14 64 -8 83 33 110 15 9 40 32 57 50 16 17 36 32 43 32 7 0 15 8 19
18 10 28 45 62 65 62 10 0 18 6 18 14 0 7 9 16 20 19 15 4 20 14 20 40 0 55
-8 67 -46 67 -23 0 -38 -6 -46 -20 -7 -11 -18 -20 -25 -20 -7 0 -17 -9 -23
-20 -6 -11 -19 -20 -30 -20 -11 0 -28 -9 -38 -21 -16 -16 -29 -20 -68 -17 -44
3 -49 6 -52 28 -2 14 -10 39 -18 57 -8 17 -14 40 -14 50 0 11 -9 28 -20 38
-11 10 -20 24 -20 31 0 7 -8 19 -18 26 -10 7 -22 25 -25 40 -8 30 -48 78 -65
78 -6 0 -13 9 -17 19 -3 11 -14 23 -23 26 -9 4 -39 33 -67 65 -27 32 -63 65
-80 73 -50 25 -119 55 -145 63 -14 4 -31 15 -38 25 -11 16 -25 18 -83 17 -52
-2 -72 1 -79 12 -13 21 -110 50 -131 39 -21 -11 -69 -12 -69 -1 0 4 5 14 10
22 17 27 -17 50 -77 50 -40 0 -53 4 -53 15 0 7 -7 18 -15 22 -24 14 -25 83 0
83 8 0 17 11 21 25 6 24 10 25 78 25 61 0 74 4 93 23 24 26 38 85 29 121 -9
38 -84 76 -149 76 -29 0 -56 2 -59 5 -10 10 15 95 28 95 7 0 16 9 19 21 9 28
36 59 52 59 6 0 16 6 20 13 4 8 19 17 32 20 20 5 33 -2 68 -37 24 -24 43 -51
43 -61 0 -10 8 -27 17 -37 10 -11 22 -34 28 -51 22 -71 124 -29 138 57 3 21
13 46 22 56 8 9 15 29 15 44 0 44 37 76 88 76 39 0 48 -5 88 -46z m-865 -334
c5 -41 -13 -121 -27 -127 -16 -6 -19 -39 -5 -48 6 -3 4 -20 -5 -41 -8 -20 -14
-52 -12 -72 3 -30 8 -37 38 -47 l35 -13 -28 -7 c-15 -4 -32 -16 -38 -26 -5
-11 -16 -19 -23 -19 -8 0 -17 -11 -20 -25 -3 -13 -24 -41 -46 -61 -22 -21 -40
-43 -40 -51 0 -7 -7 -13 -15 -13 -9 0 -18 -6 -21 -14 -3 -8 -25 -19 -50 -26
-46 -13 -114 -76 -114 -105 0 -22 -46 -19 -70 5 -11 11 -27 20 -35 20 -9 0
-29 10 -45 22 -27 20 -30 27 -30 82 0 39 -5 65 -15 76 -31 34 -31 230 -1 230
7 0 24 8 37 18 13 11 38 22 55 25 33 6 84 46 84 64 0 6 24 14 54 17 33 5 57
13 60 22 3 9 20 14 45 14 26 0 49 8 68 23 35 27 62 44 90 56 11 6 29 21 40 35
20 27 30 23 34 -14z m-1641 -310 c0 -5 25 -21 55 -36 51 -25 56 -26 73 -11 23
21 36 21 52 2 7 -8 21 -15 31 -15 16 0 50 -29 87 -74 7 -9 22 -16 34 -16 20 0
84 -41 100 -64 4 -6 8 -21 8 -34 0 -15 20 -42 57 -77 50 -49 57 -61 63 -105 6
-43 4 -50 -11 -50 -33 0 -37 -23 -36 -208 0 -119 -3 -186 -10 -190 -6 -4 -14
-41 -17 -82 -4 -41 -9 -104 -12 -140 -3 -36 -11 -68 -17 -72 -6 -3 -14 -36
-18 -73 -5 -37 -15 -73 -23 -79 -7 -6 -16 -29 -19 -50 -4 -22 -13 -44 -22 -48
-21 -13 -22 -170 0 -188 8 -7 17 -28 21 -47 4 -23 13 -37 25 -40 11 -3 19 -11
19 -19 0 -7 8 -17 17 -22 13 -8 11 -11 -16 -17 -18 -4 -35 -13 -38 -21 -8 -23
-23 -16 -34 15 -6 18 -20 32 -34 35 -26 7 -55 -1 -55 -15 0 -5 -5 -9 -11 -9
-16 0 -8 208 8 218 8 5 17 50 23 113 12 121 15 151 29 239 12 77 26 193 47
420 21 212 20 413 -1 485 -14 50 -18 55 -50 61 -24 4 -43 1 -59 -9 l-23 -16
-5 -295 c-3 -228 -8 -298 -18 -311 -9 -11 -16 -66 -21 -177 -4 -88 -12 -164
-17 -167 -5 -3 -12 -40 -16 -81 -12 -141 -24 -235 -35 -270 -5 -19 -12 -90
-15 -157 -4 -88 -9 -129 -21 -146 -14 -21 -14 -27 -2 -39 18 -18 30 -69 19
-85 -17 -26 -130 -54 -312 -75 -40 -5 -201 16 -250 33 -30 10 -78 19 -107 19
-41 0 -54 4 -63 19 -5 11 -20 23 -32 26 -52 15 -77 31 -82 50 -7 26 -28 54
-98 124 -31 32 -60 71 -64 85 -4 15 -13 30 -20 33 -8 3 -16 31 -20 75 -4 38
-13 75 -20 83 -16 16 -19 105 -4 105 6 0 10 9 10 20 0 11 -4 20 -9 20 -5 0
-11 18 -15 39 -3 21 -13 41 -21 45 -21 8 -21 92 1 104 10 5 17 29 21 68 3 32
11 62 16 66 6 3 14 55 18 114 6 78 12 110 22 116 10 5 17 35 22 97 5 59 11 91
20 95 7 2 16 18 20 35 4 17 11 31 16 31 6 0 15 13 22 28 12 27 25 46 59 80 9
9 19 34 23 55 4 22 13 37 21 37 8 0 17 7 20 15 4 8 12 15 20 15 8 0 14 9 14
20 0 11 6 23 14 26 8 3 20 19 26 35 7 16 21 34 31 40 11 5 19 16 19 24 0 8 7
15 15 15 8 0 15 8 15 18 0 11 11 24 25 30 14 6 25 16 25 22 0 5 7 10 15 10 8
0 24 9 35 20 11 11 29 20 39 20 10 0 29 9 42 20 22 17 40 19 192 20 101 0 167
-4 167 -10z m2070 -165 c0 -8 6 -15 14 -15 7 0 21 -11 30 -25 15 -23 23 -25
86 -25 39 0 70 -4 70 -9 0 -5 3 -16 6 -25 5 -13 -2 -16 -35 -16 -26 0 -46 -6
-58 -19 -10 -10 -28 -24 -40 -30 -17 -9 -23 -21 -23 -47 0 -31 4 -37 35 -50
33 -13 35 -17 35 -63 0 -34 -6 -55 -20 -71 -11 -13 -20 -35 -20 -49 0 -15 -8
-31 -20 -39 -13 -8 -20 -23 -20 -45 0 -28 -19 -78 -20 -52 -1 24 -20 -23 -20
-48 0 -16 -9 -40 -20 -54 -11 -14 -20 -33 -20 -42 0 -9 -9 -29 -20 -46 -11
-16 -20 -40 -20 -52 0 -12 -6 -28 -14 -36 -8 -8 -18 -32 -22 -53 -4 -21 -15
-51 -25 -66 -11 -14 -19 -35 -19 -45 0 -10 -6 -28 -14 -39 -8 -11 -18 -38 -22
-60 -4 -21 -15 -55 -25 -74 -11 -19 -19 -44 -19 -55 0 -11 -6 -29 -13 -40 -7
-11 -24 -47 -37 -80 -22 -55 -24 -74 -25 -221 0 -135 3 -163 16 -177 9 -8 19
-37 23 -64 4 -26 13 -57 21 -67 8 -11 15 -32 15 -48 0 -25 -3 -28 -37 -30
-119 -4 -136 -3 -141 12 -3 8 -11 20 -17 25 -7 6 -18 31 -25 58 -7 26 -17 47
-21 47 -5 0 -9 79 -9 176 0 161 2 178 20 201 15 19 20 41 20 86 0 40 5 66 15
77 9 10 18 48 21 96 4 48 12 82 20 87 7 4 16 23 20 42 3 19 12 39 19 45 8 6
17 30 20 52 4 23 13 47 20 54 7 7 16 34 20 60 4 26 13 53 21 61 7 8 16 36 20
63 4 28 10 50 15 50 4 0 13 26 19 57 7 31 18 63 25 70 8 7 17 35 21 61 4 26
12 56 19 67 7 11 15 44 19 74 3 30 12 61 21 71 11 12 15 39 15 97 0 86 -5 96
-63 121 -42 18 -48 16 -101 -34 -43 -41 -47 -49 -37 -70 5 -13 22 -30 36 -40
29 -19 33 -58 9 -85 -8 -9 -19 -41 -23 -71 -4 -30 -15 -65 -24 -78 -9 -14 -17
-38 -17 -54 0 -16 -6 -37 -13 -45 -14 -16 -38 -80 -61 -158 -6 -23 -20 -50
-30 -61 -9 -11 -17 -29 -16 -39 5 -41 -1 -72 -16 -87 -8 -9 -18 -33 -21 -53
-3 -21 -12 -45 -20 -54 -7 -9 -16 -40 -20 -70 -3 -30 -12 -59 -20 -66 -10 -7
-17 -37 -21 -80 -3 -44 -11 -76 -23 -92 -14 -17 -19 -41 -19 -87 0 -46 -5 -67
-17 -80 -16 -15 -18 -38 -18 -177 1 -140 3 -160 18 -168 12 -7 17 -23 17 -55
0 -41 -2 -44 -23 -42 -13 2 -35 11 -49 20 -14 10 -38 20 -53 24 -25 6 -26 8
-9 17 65 35 97 108 71 157 -20 39 -83 25 -99 -21 -2 -5 -13 -6 -25 -3 -20 5
-23 13 -23 50 0 24 4 44 8 44 9 0 8 47 -1 57 -10 9 -9 97 1 108 15 18 32 92
32 141 0 27 7 59 15 70 8 12 17 51 21 87 4 39 12 68 19 71 9 3 15 38 20 103 5
62 13 104 22 114 8 10 17 43 20 75 4 41 12 63 25 72 14 11 18 26 18 79 0 45 5
72 15 83 8 9 18 39 21 66 4 27 13 52 20 57 7 4 15 26 19 50 4 23 13 49 20 57
7 8 16 34 20 57 3 23 12 44 20 47 7 2 16 22 20 44 6 39 79 132 103 132 6 0 15
6 19 14 13 22 74 34 129 25 65 -10 174 0 181 17 7 19 23 18 23 -1z m284 -160
c3 -9 18 -15 40 -15 25 0 40 -7 55 -26 12 -15 21 -32 21 -39 0 -6 8 -21 18
-33 9 -11 28 -35 42 -53 14 -17 33 -39 43 -48 9 -8 17 -19 17 -24 0 -15 51
-119 65 -134 10 -10 15 -36 15 -78 0 -53 -3 -66 -19 -74 -15 -9 -19 -25 -23
-99 -3 -67 -8 -94 -21 -106 -9 -10 -20 -35 -23 -57 -4 -21 -10 -39 -14 -39 -4
0 -13 -19 -20 -42 -7 -24 -17 -46 -23 -50 -6 -3 -14 -37 -19 -74 -4 -37 -12
-70 -17 -73 -14 -9 -39 -116 -34 -148 8 -55 27 -118 36 -124 5 -4 12 -30 15
-59 3 -33 12 -60 23 -71 24 -24 24 -36 -1 -44 -11 -3 -20 -15 -20 -25 0 -29
-11 -50 -26 -50 -8 0 -14 -8 -14 -18 0 -10 -12 -23 -27 -30 -71 -33 -93 -47
-93 -59 0 -7 -7 -13 -16 -13 -9 0 -18 -9 -21 -20 -4 -13 -14 -20 -31 -20 -23
0 -24 2 -10 13 14 10 17 39 20 180 2 135 6 170 18 177 11 7 16 36 21 103 4 57
12 102 21 117 9 14 18 61 22 104 3 47 11 83 19 88 8 5 14 51 18 146 4 113 9
143 22 157 14 13 17 35 17 108 0 73 4 100 20 129 41 77 -34 144 -96 86 -13
-13 -24 -33 -24 -45 0 -12 -9 -30 -19 -40 -17 -16 -20 -35 -23 -146 -2 -100
-6 -130 -18 -137 -11 -7 -17 -37 -21 -117 -4 -67 -10 -108 -17 -111 -7 -2 -12
-13 -12 -23 0 -11 5 -17 10 -14 6 3 10 2 10 -4 0 -5 -5 -11 -10 -13 -6 -2 -15
-43 -20 -91 -5 -49 -14 -94 -19 -101 -6 -7 -14 -72 -19 -145 -6 -86 -14 -136
-22 -141 -7 -4 -15 -36 -19 -71 -4 -36 -14 -75 -24 -89 -23 -33 -22 -101 2
-132 l20 -24 -32 -16 c-18 -9 -58 -19 -89 -22 l-58 -6 -2 97 c-1 54 -2 109 -2
123 -1 14 -7 40 -15 58 -11 26 -12 44 -3 85 6 29 16 110 22 182 6 71 16 135
22 142 6 7 15 34 19 60 5 25 15 54 23 62 8 9 17 36 21 61 4 24 13 54 20 65 7
11 16 42 20 70 4 27 13 58 21 69 8 11 14 30 14 41 0 11 8 36 19 55 10 19 21
53 25 74 4 21 13 45 21 52 7 7 16 38 19 68 4 31 13 57 21 60 7 2 17 26 21 53
4 26 13 53 19 58 7 6 15 27 18 48 3 20 13 44 21 53 12 12 16 38 16 110 0 86 9
117 24 79z m-927 -212 c-3 -10 -5 -4 -5 12 0 17 2 24 5 18 2 -7 2 -21 0 -30z
m-35 -50 c-2 -21 -11 -46 -20 -55 -8 -10 -17 -41 -20 -70 -3 -29 -11 -58 -19
-63 -8 -6 -18 -38 -22 -74 -4 -34 -13 -66 -20 -70 -6 -4 -14 -32 -18 -62 -3
-30 -12 -58 -19 -64 -7 -5 -16 -41 -20 -80 -4 -38 -12 -81 -19 -95 -7 -14 -16
-52 -20 -85 -5 -33 -14 -69 -20 -80 -7 -11 -16 -62 -20 -114 -4 -51 -13 -111
-21 -133 -8 -22 -14 -55 -14 -74 0 -18 -4 -35 -9 -38 -12 -8 -21 29 -21 90 0
34 -5 56 -15 64 -23 19 -20 115 5 155 19 30 23 72 21 179 -1 22 5 46 14 56 11
12 15 38 15 93 0 66 3 79 25 105 14 17 25 39 25 51 0 12 5 21 10 21 14 0 56
98 65 149 4 22 11 41 16 41 5 0 16 15 24 33 31 63 53 98 61 97 5 -1 13 12 18
29 12 43 23 39 18 -6z m-748 -149 c3 -8 10 -13 15 -9 6 3 13 -11 17 -32 4 -21
13 -43 21 -48 11 -8 14 -53 16 -207 2 -177 0 -198 -15 -210 -12 -9 -19 -31
-22 -72 -3 -40 -10 -64 -20 -72 -9 -6 -16 -16 -16 -22 0 -6 -9 -19 -19 -29
-11 -10 -21 -31 -23 -48 -2 -24 -8 -30 -27 -30 -23 0 -24 2 -24 83 0 61 4 86
14 93 10 6 16 37 19 104 4 69 10 99 20 105 12 8 16 47 18 210 3 183 9 227 26
184z m2104 -555 c-2 -111 -7 -161 -16 -172 -8 -9 -16 -55 -19 -112 -4 -69 -11
-101 -22 -112 -9 -9 -21 -28 -28 -42 -11 -22 -12 -9 -10 83 1 77 6 111 15 114
14 4 17 42 3 42 -5 0 -12 16 -15 35 -5 27 -2 44 13 69 15 24 21 50 21 95 0 42
6 73 20 98 11 21 20 52 20 69 0 40 14 54 18 17 2 -15 2 -98 0 -184z m-1878
-17 c0 -4 -6 -14 -12 -20 -10 -10 -10 -17 0 -32 18 -29 15 -180 -3 -204 -19
-25 -19 -66 -1 -91 7 -11 18 -37 24 -57 14 -50 -1 -62 -65 -54 -34 5 -56 2
-77 -9 -15 -8 -48 -15 -72 -15 l-44 0 0 53 c0 40 5 60 20 77 11 13 20 36 20
51 0 18 7 32 20 39 11 6 20 19 20 29 0 10 9 26 20 36 11 10 20 24 20 31 0 7 9
16 20 19 11 3 20 11 20 16 0 5 9 18 20 29 14 14 20 33 20 65 0 41 2 45 25 45
14 0 25 -4 25 -8z m3063 -217 c20 -8 48 -15 61 -15 14 0 29 -6 33 -14 9 -15
119 -106 129 -106 4 0 21 -16 40 -35 18 -19 39 -35 47 -35 8 0 22 -9 32 -20
10 -11 27 -22 39 -26 11 -3 28 -13 37 -20 11 -10 56 -16 142 -21 70 -3 127
-10 127 -14 0 -19 -13 -39 -26 -39 -8 0 -14 -8 -14 -19 0 -15 -11 -19 -72 -24
-48 -4 -76 -11 -84 -22 -6 -8 -16 -15 -22 -15 -6 0 -16 -9 -22 -20 -6 -11 -26
-22 -48 -26 -20 -3 -47 -13 -60 -21 -17 -10 -62 -15 -167 -16 -140 -2 -145 -1
-160 21 -9 12 -24 22 -34 22 -11 0 -21 6 -24 14 -3 8 -18 20 -34 28 -52 26
-78 43 -85 54 -4 7 -23 15 -42 18 -21 4 -37 14 -41 25 -6 20 13 71 26 71 4 0
10 9 14 19 3 10 15 21 25 24 16 4 20 14 20 44 0 21 -4 53 -9 70 -14 50 5 83
49 83 27 0 66 13 86 29 1 1 18 -6 37 -14z"/>
<path d="M4755 7443 c-22 -2 -45 -11 -51 -19 -8 -10 -36 -16 -84 -20 -54 -3
-76 -9 -86 -22 -10 -14 -16 -15 -32 -5 -16 9 -27 8 -56 -5 -32 -14 -36 -20
-36 -54 0 -25 -5 -41 -15 -44 -16 -6 -21 -34 -6 -34 4 0 20 -12 35 -27 32 -32
92 -36 112 -8 9 13 28 17 75 16 41 0 77 7 105 19 40 19 47 19 110 6 36 -8 79
-24 95 -35 34 -25 148 -43 194 -30 18 5 37 21 47 39 16 29 16 33 1 65 -9 19
-21 35 -26 35 -5 0 -20 10 -32 23 -42 42 -77 67 -92 67 -9 0 -21 7 -27 16 -9
12 -33 16 -101 18 -50 1 -108 0 -130 -1z"/>
<path d="M5510 7441 c-14 -5 -38 -16 -55 -25 -16 -9 -36 -16 -43 -16 -7 0 -15
-6 -18 -14 -3 -8 -17 -17 -32 -21 -27 -6 -72 -49 -72 -68 0 -5 14 -22 31 -38
34 -32 79 -38 99 -14 7 8 19 15 26 15 8 0 22 9 31 20 15 17 30 20 95 20 61 0
78 -3 78 -14 0 -8 13 -17 29 -21 16 -3 35 -13 42 -21 6 -8 17 -14 24 -14 7 0
36 -19 65 -42 45 -36 59 -42 101 -42 67 0 83 16 75 79 -3 27 -12 55 -20 60 -8
6 -16 24 -18 40 -2 24 -13 34 -63 58 -33 16 -73 37 -89 45 -34 17 -245 27
-286 13z"/>
<path d="M3670 6881 c-64 -12 -110 -40 -127 -76 -9 -19 -21 -35 -27 -35 -6 0
-27 -16 -46 -35 -19 -19 -37 -35 -41 -35 -4 0 -11 -10 -15 -22 -4 -13 -14 -28
-22 -34 -21 -15 -20 -98 0 -121 9 -10 19 -28 23 -41 7 -24 89 -92 111 -92 7 0
23 -9 36 -20 76 -65 70 -62 133 -57 33 3 61 10 63 16 5 15 69 14 74 -1 3 -8
16 -7 46 5 23 9 67 17 97 17 51 0 58 3 102 45 26 24 53 45 59 45 16 0 24 34
24 98 0 37 4 54 15 58 20 8 20 73 1 80 -8 3 -17 16 -20 30 -4 13 -11 24 -16
24 -5 0 -16 16 -24 35 -11 26 -23 37 -45 41 -16 4 -32 12 -35 19 -2 7 -30 16
-62 20 -32 4 -74 15 -93 26 -37 20 -134 24 -211 10z m186 -283 c-2 -18 -11
-24 -36 -26 -27 -3 -32 -1 -26 13 3 9 6 21 6 26 0 5 13 9 30 9 25 0 29 -3 26
-22z"/>
<path d="M2341 3126 c-5 -13 -17 -26 -25 -29 -9 -4 -16 -17 -16 -29 0 -13 -9
-31 -20 -41 -11 -9 -20 -27 -20 -40 0 -13 -9 -34 -20 -47 -13 -15 -20 -37 -20
-64 0 -29 -5 -45 -19 -53 -13 -8 -20 -27 -23 -63 -3 -29 -11 -56 -18 -60 -7
-4 -15 -37 -19 -72 -4 -41 -13 -72 -24 -82 -13 -14 -17 -35 -17 -101 0 -66 -4
-87 -17 -101 -15 -14 -19 -42 -23 -156 -4 -109 -8 -141 -20 -148 -21 -13 -22
-352 -1 -389 7 -14 17 -58 22 -100 6 -50 14 -78 24 -83 10 -6 15 -24 15 -57 0
-33 6 -56 20 -74 11 -14 20 -33 20 -42 0 -28 51 -105 80 -120 22 -11 35 -12
58 -4 41 14 46 32 22 84 -11 24 -20 48 -20 53 0 5 -6 15 -14 21 -8 7 -17 27
-21 44 -3 18 -12 48 -20 67 -26 65 -51 486 -33 554 4 16 10 106 14 200 4 94
11 173 15 177 12 7 29 102 29 158 0 26 6 56 14 67 8 12 18 45 22 75 4 29 13
60 21 67 7 7 13 33 13 57 0 33 5 47 19 54 12 7 20 26 25 60 3 27 12 51 20 54
7 3 16 23 20 45 3 22 13 42 21 46 21 8 21 82 -1 90 -37 14 -74 6 -83 -18z"/>
<path d="M2625 3011 c-56 -18 -85 -42 -85 -70 0 -16 -11 -54 -25 -85 -14 -31
-25 -65 -25 -74 0 -10 -4 -22 -9 -27 -5 -6 -14 -34 -20 -64 -6 -30 -16 -60
-22 -67 -5 -7 -14 -51 -19 -98 -5 -50 -15 -92 -23 -100 -16 -16 -27 -195 -27
-433 0 -82 -4 -143 -9 -143 -6 0 -3 -12 5 -27 9 -18 14 -60 14 -119 0 -104 9
-186 20 -179 10 6 20 -45 20 -97 0 -49 14 -76 45 -88 34 -13 62 -2 79 33 14
29 14 33 -2 45 -15 11 -17 39 -20 235 -4 244 6 510 18 502 10 -6 15 73 19 260
2 113 5 143 19 158 9 11 19 45 23 83 4 37 13 72 23 83 9 10 16 36 17 62 1 51
10 82 24 77 14 -4 18 97 5 122 -11 21 -14 22 -45 11z"/>
<path d="M1934 2866 c-26 -27 -31 -39 -33 -91 -1 -34 -8 -66 -16 -75 -8 -9
-17 -43 -21 -75 -4 -33 -12 -74 -19 -91 -7 -17 -16 -69 -20 -115 -4 -46 -12
-90 -18 -97 -5 -7 -16 -71 -23 -143 -7 -72 -17 -136 -22 -142 -15 -18 -22
-106 -24 -282 -1 -158 5 -225 23 -225 5 0 3 -12 -3 -26 -10 -22 -9 -27 4 -35
9 -5 19 -27 23 -49 4 -22 11 -40 15 -40 5 0 21 -27 37 -59 16 -34 38 -64 51
-70 12 -6 22 -15 22 -21 0 -5 18 -10 40 -10 35 0 42 4 51 27 11 30 4 79 -14
90 -27 18 -58 76 -63 120 -4 27 -14 59 -23 73 -14 21 -16 58 -15 248 0 150 4
226 11 230 15 9 21 53 28 196 3 66 11 126 17 133 5 7 14 47 19 90 5 42 13 79
18 82 5 4 15 53 21 111 7 58 19 114 26 125 17 24 18 127 2 143 -20 20 -62 11
-94 -22z"/>
<path d="M6713 3958 c-22 -25 -36 -78 -25 -94 19 -28 82 -52 151 -58 41 -4 94
-15 118 -26 76 -33 203 -161 203 -203 0 -7 9 -31 20 -52 11 -22 23 -65 27 -95
3 -30 10 -64 16 -75 6 -11 16 -85 23 -165 8 -80 16 -170 19 -200 9 -96 9 -125
1 -142 -14 -30 40 -35 91 -8 53 28 61 50 34 94 -17 26 -21 50 -21 113 0 47 -5
84 -12 91 -6 6 -14 62 -18 129 -5 82 -14 133 -28 168 -29 71 -52 147 -52 169
0 43 -90 157 -189 239 -19 15 -86 52 -149 82 -130 62 -176 69 -209 33z"/>
<path d="M6652 2899 c-46 -17 -62 -110 -29 -173 5 -11 15 -61 22 -112 16 -112
9 -143 -43 -201 -90 -102 -90 -102 -76 -137 8 -20 43 -21 50 -1 4 8 11 15 17
15 15 0 67 51 67 66 0 7 6 17 13 21 49 32 93 154 82 233 -3 25 -7 82 -9 127
-6 134 -35 184 -94 162z"/>
</g>
</svg>
